<svg width="1949" height="837" viewBox="0 0 1949 837" fill="none" xmlns="http://www.w3.org/2000/svg">
<path d="M352.371 778.255C334.355 778.255 320.423 772.91 310.574 762.221C300.846 751.532 295.981 736.819 295.981 718.082C295.981 698.385 301.026 682.951 311.115 671.781C321.324 660.611 335.557 655.026 353.813 655.026C358.737 655.026 362.941 655.507 366.424 656.467C369.907 657.308 373.45 658.449 377.053 659.89C379.816 661.092 381.857 661.692 383.179 661.692C385.341 661.692 386.782 660.851 387.502 659.17L388.043 657.188H392.907L394.709 689.617H389.845C384.92 670.64 373.33 661.152 355.074 661.152C345.105 661.152 337.118 664.094 331.113 669.979C325.227 675.744 321.084 682.831 318.682 691.238C316.279 699.646 315.078 708.053 315.078 716.46C315.078 726.189 316.46 735.317 319.222 743.845C321.985 752.252 326.368 759.098 332.374 764.383C338.379 769.547 345.946 772.13 355.074 772.13C362.4 772.13 368.406 770.929 373.09 768.527C377.894 766.004 381.557 763.002 384.079 759.519C386.602 755.915 388.884 751.772 390.926 747.088L395.429 749.43C392.547 757.357 387.863 764.143 381.377 769.788C375.011 775.433 365.343 778.255 352.371 778.255ZM540.437 778.255C522.301 778.255 508.669 772.67 499.541 761.5C490.533 750.21 486.029 735.317 486.029 716.821C486.029 698.445 490.533 683.551 499.541 672.141C508.548 660.731 522.181 655.026 540.437 655.026C558.813 655.026 572.505 660.731 581.513 672.141C590.521 683.551 595.025 698.445 595.025 716.821C595.025 735.317 590.461 750.21 581.333 761.5C572.325 772.67 558.693 778.255 540.437 778.255ZM540.617 772.13C553.588 772.13 562.716 766.905 568.001 756.456C573.286 745.887 575.928 732.675 575.928 716.821C575.928 700.006 573.346 686.554 568.181 676.465C563.017 666.256 553.829 661.152 540.617 661.152C527.405 661.152 518.217 666.256 513.052 676.465C507.888 686.554 505.306 700.006 505.306 716.821C505.306 732.675 507.948 745.887 513.233 756.456C518.517 766.905 527.645 772.13 540.617 772.13ZM682.749 770.869C687.072 770.869 690.195 770.628 692.117 770.148C694.038 769.547 695.24 768.587 695.72 767.265C696.321 765.944 696.621 763.782 696.621 760.78V672.682C696.621 669.559 696.321 667.337 695.72 666.016C695.119 664.695 693.858 663.794 691.937 663.313C690.135 662.713 687.072 662.413 682.749 662.413V657.188H731.211C743.102 657.188 752.41 659.65 759.136 664.575C765.862 669.499 769.225 676.825 769.225 686.554C769.225 694.721 766.883 701.327 762.199 706.372C757.635 711.416 751.449 714.839 743.642 716.641V717.001C749.768 718.803 754.272 721.745 757.154 725.829C760.157 729.912 762.319 736.158 763.64 744.565L764.721 751.231C765.922 757.957 767.604 762.942 769.766 766.184C771.927 769.307 775.29 770.869 779.854 770.869V776.093H756.434C753.311 773.211 750.909 767.686 749.227 759.519L744.904 737.359C743.702 731.354 741.48 727.03 738.238 724.388C735.115 721.625 730.431 720.244 724.185 720.244H713.195V760.78C713.195 763.782 713.496 766.004 714.096 767.446C714.697 768.767 716.018 769.668 718.06 770.148C720.102 770.628 723.404 770.869 727.969 770.869V776.093H682.749V770.869ZM724.545 713.758C733.674 713.758 740.4 711.776 744.723 707.813C749.047 703.729 751.209 697.364 751.209 688.716C751.209 680.068 748.987 673.703 744.543 669.619C740.099 665.535 733.313 663.494 724.185 663.494C719.621 663.494 716.618 664.034 715.177 665.115C713.856 666.076 713.195 667.757 713.195 670.16V713.758H724.545ZM880.419 770.869C886.184 770.869 890.147 770.628 892.309 770.148C894.591 769.668 896.032 768.767 896.633 767.446C897.233 766.004 897.534 763.542 897.534 760.059V663.133H887.805C881.199 663.133 876.275 663.794 873.032 665.115C869.789 666.316 867.447 668.538 866.006 671.781C864.565 674.904 863.303 679.768 862.222 686.374H857.538V657.188H954.104V686.374H949.42C948.339 679.768 947.017 674.904 945.456 671.781C944.015 668.538 941.673 666.316 938.43 665.115C935.307 663.794 930.503 663.133 924.017 663.133H914.108V760.059C914.108 763.542 914.409 766.004 915.009 767.446C915.73 768.767 917.231 769.668 919.513 770.148C921.795 770.628 925.699 770.869 931.224 770.869V776.093H880.419V770.869ZM1043.31 770.869C1047.88 770.869 1051.06 770.628 1052.86 770.148C1054.78 769.547 1055.98 768.587 1056.47 767.265C1056.95 765.824 1057.19 763.422 1057.19 760.059V673.402C1057.19 669.919 1056.89 667.517 1056.29 666.196C1055.8 664.755 1054.6 663.794 1052.68 663.313C1050.88 662.713 1047.76 662.413 1043.31 662.413V657.188H1087.63V662.413C1083.07 662.413 1079.89 662.713 1078.08 663.313C1076.28 663.794 1075.08 664.755 1074.48 666.196C1074 667.517 1073.76 669.919 1073.76 673.402V760.059C1073.76 763.422 1074 765.824 1074.48 767.265C1075.08 768.587 1076.28 769.547 1078.08 770.148C1080.01 770.628 1083.19 770.869 1087.63 770.869V776.093H1043.31V770.869ZM1201.44 674.844H1201.08V761.5C1201.08 764.863 1201.74 767.265 1203.07 768.707C1204.51 770.148 1206.85 770.869 1210.09 770.869H1217.12V776.093H1180.37V770.869H1185.59C1188.47 770.869 1190.57 770.148 1191.9 768.707C1193.34 767.145 1194.06 764.743 1194.06 761.5V672.682C1194.06 669.559 1193.76 667.337 1193.16 666.016C1192.56 664.695 1191.36 663.794 1189.55 663.313C1187.75 662.833 1184.63 662.533 1180.19 662.413V657.188H1210.45L1271.17 749.43H1271.71V671.06C1271.71 665.295 1268.64 662.413 1262.52 662.413H1255.49V657.188H1292.24V662.413H1286.84C1281.31 662.413 1278.55 665.295 1278.55 671.06V777.174H1269.72L1201.44 674.844ZM1477.66 760.96C1478.98 765.164 1480.42 767.866 1481.98 769.067C1483.66 770.268 1486.66 770.869 1490.99 770.869V776.093H1449.73V770.869H1456.58C1460.06 770.869 1461.8 769.367 1461.8 766.365C1461.8 765.164 1461.62 763.963 1461.26 762.761L1449.91 731.053H1409.92L1398.57 763.302C1398.09 764.983 1397.84 766.184 1397.84 766.905C1397.84 769.547 1399.53 770.869 1402.89 770.869H1409.38V776.093H1377.31V770.869C1380.43 770.869 1382.83 770.568 1384.51 769.968C1386.19 769.247 1387.52 768.166 1388.48 766.725C1389.56 765.164 1390.64 762.822 1391.72 759.699L1429.91 657.188H1440L1477.66 760.96ZM1447.75 724.928L1430.09 675.925H1429.55L1412.26 724.928H1447.75ZM1577.37 741.503H1582.05C1583.38 749.91 1586.86 757.116 1592.5 763.122C1598.15 769.127 1605.36 772.13 1614.12 772.13C1621.69 772.13 1627.58 769.908 1631.78 765.464C1636.1 761.02 1638.26 755.435 1638.26 748.709C1638.26 743.064 1636.58 738.38 1633.22 734.657C1629.86 730.933 1624.63 727.51 1617.55 724.388L1609.26 720.964C1599.29 716.761 1591.72 712.077 1586.56 706.912C1581.39 701.747 1578.81 694.781 1578.81 686.014C1578.81 675.925 1582.24 668.238 1589.08 662.953C1595.93 657.668 1604.69 655.026 1615.38 655.026C1622.23 655.026 1628.3 656.287 1633.58 658.809C1635.74 659.65 1637.24 660.071 1638.08 660.071C1639.05 660.071 1639.77 659.71 1640.25 658.99C1640.73 658.149 1641.15 657.008 1641.51 655.567H1645.47L1647.27 687.455H1642.59C1641.39 679.528 1638.56 673.162 1634.12 668.358C1629.68 663.554 1623.55 661.152 1615.74 661.152C1609.38 661.152 1604.27 662.893 1600.43 666.376C1596.71 669.739 1594.85 674.784 1594.85 681.51C1594.85 687.275 1596.53 691.839 1599.89 695.202C1603.25 698.565 1608.42 701.747 1615.38 704.75L1624.03 708.353C1630.4 711.116 1635.68 713.878 1639.89 716.641C1644.21 719.403 1647.75 723.066 1650.52 727.63C1653.28 732.074 1654.66 737.539 1654.66 744.025C1654.66 754.594 1651 762.942 1643.67 769.067C1636.46 775.192 1626.67 778.255 1614.3 778.255C1609.74 778.255 1605.96 777.895 1602.95 777.174C1599.95 776.574 1596.77 775.673 1593.4 774.472C1591.24 773.511 1589.56 773.031 1588.36 773.031C1587.04 773.031 1586.02 773.451 1585.3 774.292C1584.7 775.132 1584.34 776.213 1584.22 777.535H1579.71L1577.37 741.503Z" fill="#141114"/>
<rect x="0.725098" y="0.84668" width="1948.02" height="536" rx="38" fill="#141113"/>
<path d="M396.349 360.904C401.29 373.669 408.393 380.258 417.659 380.67V386.847C409.423 386.229 398.407 385.92 384.612 385.92C366.905 385.92 353.728 386.229 345.08 386.847V380.67C352.904 380.258 358.464 379.331 361.758 377.89C365.258 376.243 367.008 373.36 367.008 369.243C367.008 365.742 365.773 360.904 363.302 354.727L344.463 304.076H269.722L257.059 336.814C252.941 347.932 250.883 356.374 250.883 362.139C250.883 368.522 253.044 373.155 257.368 376.037C261.898 378.92 268.693 380.464 277.752 380.67V386.847C266.016 386.229 254.177 385.92 242.235 385.92C232.97 385.92 225.248 386.229 219.071 386.847V380.67C229.366 378.199 237.499 369.243 243.47 353.8L316.049 166.64H320.99L396.349 360.904ZM341.992 297.899L307.401 205.555L272.193 297.899H341.992ZM616.664 174.361C609.457 174.773 604.104 175.906 600.604 177.759C597.103 179.406 594.736 182.288 593.5 186.406C592.265 190.318 591.647 196.186 591.647 204.01V388.391H584.544L454.829 187.951V351.021C454.829 359.051 455.446 365.022 456.682 368.934C458.123 372.846 460.8 375.728 464.712 377.581C468.624 379.229 474.698 380.258 482.934 380.67V386.847C475.521 386.229 465.021 385.92 451.431 385.92C439.078 385.92 429.503 386.229 422.709 386.847V380.67C429.915 380.258 435.269 379.229 438.769 377.581C442.269 375.728 444.637 372.846 445.872 368.934C447.108 364.816 447.725 358.845 447.725 351.021V200.922C447.725 193.098 447.108 187.436 445.872 183.936C444.637 180.435 442.269 178.067 438.769 176.832C435.474 175.597 430.121 174.773 422.709 174.361V168.184C429.503 168.802 439.078 169.111 451.431 169.111C460.697 169.111 468.727 168.802 475.521 168.184L584.544 336.196V204.01C584.544 195.98 583.823 190.009 582.382 186.097C581.146 182.185 578.573 179.406 574.661 177.759C570.749 175.906 564.675 174.773 556.439 174.361V168.184C563.851 168.802 574.352 169.111 587.941 169.111C600.295 169.111 609.869 168.802 616.664 168.184V174.361ZM741.813 163.861C753.961 163.861 763.947 165.611 771.771 169.111C779.595 172.405 788.14 177.347 797.405 183.936C800.082 185.994 802.141 187.024 803.582 187.024C807.494 187.024 810.068 180.744 811.303 168.184H818.407C817.583 181.568 817.172 205.246 817.172 239.219H810.068C808.215 228.306 806.259 219.35 804.2 212.349C802.141 205.143 798.95 198.863 794.626 193.51C788.655 186.097 780.831 180.229 771.154 175.906C761.682 171.582 751.696 169.42 741.196 169.42C727.606 169.42 715.664 173.847 705.37 182.7C695.075 191.554 687.148 204.216 681.589 220.688C676.029 236.954 673.25 255.999 673.25 277.824C673.25 314.886 679.118 342.064 690.854 359.359C702.796 376.449 721.43 384.994 746.755 384.994C759.109 384.994 769.815 381.802 778.875 375.419C782.581 372.949 784.949 370.581 785.978 368.316C787.214 365.845 787.831 362.551 787.831 358.433V328.784C787.831 320.136 787.008 313.856 785.36 309.944C783.713 306.032 780.831 303.356 776.713 301.914C772.595 300.473 765.903 299.546 756.638 299.135V292.958C767.345 293.575 781.86 293.884 800.185 293.884C814.186 293.884 824.893 293.575 832.305 292.958V299.135C827.569 299.546 824.069 300.37 821.804 301.605C819.745 302.841 818.304 305.209 817.48 308.709C816.863 312.209 816.554 317.871 816.554 325.695V386.847H810.377C810.171 382.729 809.347 378.817 807.906 375.111C806.465 371.199 804.509 369.243 802.038 369.243C800.803 369.243 799.567 369.551 798.332 370.169C797.097 370.787 794.935 372.228 791.846 374.493C784.64 380.052 777.125 384.17 769.301 386.847C761.682 389.729 753.138 391.171 743.666 391.171C722.459 391.171 704.237 386.847 689.001 378.199C673.97 369.345 662.44 356.683 654.41 340.211C646.38 323.739 642.365 304.076 642.365 281.222C642.365 257.749 646.586 237.16 655.028 219.453C663.676 201.54 675.515 187.848 690.545 178.376C705.576 168.699 722.665 163.861 741.813 163.861ZM1013.94 347.315C1013.94 359.051 1014.66 372.228 1016.11 386.847C1002.11 386.229 978.53 385.92 945.381 385.92C905.849 385.92 875.994 386.229 855.816 386.847V380.67C863.228 380.258 868.581 379.434 871.876 378.199C875.376 376.964 877.744 374.596 878.979 371.096C880.214 367.595 880.832 361.933 880.832 354.109V200.922C880.832 193.098 880.214 187.436 878.979 183.936C877.744 180.435 875.376 178.067 871.876 176.832C868.581 175.597 863.228 174.773 855.816 174.361V168.184C875.994 168.802 905.849 169.111 945.381 169.111C975.648 169.111 997.164 168.802 1009.93 168.184C1008.49 181.774 1007.77 193.922 1007.77 204.628C1007.77 212.658 1008.08 219.041 1008.69 223.777H1001.59C1000.15 210.393 998.296 200.51 996.031 194.127C993.766 187.539 989.957 182.803 984.604 179.921C979.251 176.832 971.118 175.288 960.205 175.288H934.571C927.159 175.288 921.703 175.906 918.202 177.141C914.908 178.17 912.643 180.435 911.408 183.936C910.172 187.436 909.555 193.098 909.555 200.922V273.809H929.939C937.145 273.809 942.704 272.162 946.616 268.868C950.528 265.368 953.102 261.353 954.337 256.823C955.779 252.087 956.911 246.219 957.735 239.219L958.661 233.042H965.765C965.147 241.69 964.838 251.367 964.838 262.073V276.898C964.838 287.399 965.456 302.017 966.691 320.754H959.588C959.382 319.313 958.764 314.371 957.735 305.929C956.705 297.282 953.823 290.796 949.087 286.472C944.557 282.148 938.174 279.986 929.939 279.986H909.555V354.109C909.555 361.933 910.172 367.595 911.408 371.096C912.643 374.596 914.908 376.964 918.202 378.199C921.703 379.229 927.159 379.743 934.571 379.743H957.117C969.882 379.743 979.56 378.096 986.148 374.802C992.943 371.301 997.884 365.845 1000.97 358.433C1004.06 350.815 1006.33 339.696 1007.77 325.078H1014.87C1014.25 330.637 1013.94 338.049 1013.94 347.315ZM1122.77 174.361C1115.36 174.773 1109.91 175.597 1106.4 176.832C1103.11 178.067 1100.85 180.435 1099.61 183.936C1098.37 187.436 1097.76 193.098 1097.76 200.922V354.109C1097.76 361.933 1098.37 367.595 1099.61 371.096C1100.85 374.596 1103.11 376.964 1106.4 378.199C1109.91 379.229 1115.36 379.743 1122.77 379.743H1145.32C1158.08 379.743 1167.76 377.993 1174.35 374.493C1181.15 370.787 1186.09 364.919 1189.18 356.889C1192.26 348.859 1194.53 337.226 1195.97 321.989H1203.07C1202.46 328.372 1202.15 336.814 1202.15 347.315C1202.15 359.051 1202.87 372.228 1204.31 386.847C1190.31 386.229 1166.73 385.92 1133.58 385.92C1094.05 385.92 1064.2 386.229 1044.02 386.847V380.67C1051.43 380.258 1056.78 379.434 1060.08 378.199C1063.58 376.964 1065.95 374.596 1067.18 371.096C1068.42 367.595 1069.03 361.933 1069.03 354.109V200.922C1069.03 193.098 1068.42 187.436 1067.18 183.936C1065.95 180.435 1063.58 178.067 1060.08 176.832C1056.78 175.597 1051.43 174.773 1044.02 174.361V168.184C1052.67 168.802 1065.84 169.111 1083.55 169.111C1100.02 169.111 1113.1 168.802 1122.77 168.184V174.361ZM1304.34 174.361C1296.93 174.773 1291.47 175.597 1287.97 176.832C1284.68 178.067 1282.41 180.435 1281.18 183.936C1279.94 187.436 1279.32 193.098 1279.32 200.922V354.109C1279.32 361.933 1279.94 367.595 1281.18 371.096C1282.41 374.596 1284.68 376.964 1287.97 378.199C1291.47 379.434 1296.93 380.258 1304.34 380.67V386.847C1294.87 386.229 1281.79 385.92 1265.12 385.92C1247.41 385.92 1234.23 386.229 1225.59 386.847V380.67C1233 380.258 1238.35 379.434 1241.65 378.199C1245.15 376.964 1247.51 374.596 1248.75 371.096C1249.98 367.595 1250.6 361.933 1250.6 354.109V200.922C1250.6 193.098 1249.98 187.436 1248.75 183.936C1247.51 180.435 1245.15 178.067 1241.65 176.832C1238.35 175.597 1233 174.773 1225.59 174.361V168.184C1234.23 168.802 1247.41 169.111 1265.12 169.111C1281.59 169.111 1294.66 168.802 1304.34 168.184V174.361ZM1524.2 174.361C1516.99 174.773 1511.64 175.906 1508.14 177.759C1504.64 179.406 1502.27 182.288 1501.03 186.406C1499.8 190.318 1499.18 196.186 1499.18 204.01V388.391H1492.08L1362.36 187.951V351.021C1362.36 359.051 1362.98 365.022 1364.22 368.934C1365.66 372.846 1368.33 375.728 1372.25 377.581C1376.16 379.229 1382.23 380.258 1390.47 380.67V386.847C1383.06 386.229 1372.55 385.92 1358.97 385.92C1346.61 385.92 1337.04 386.229 1330.24 386.847V380.67C1337.45 380.258 1342.8 379.229 1346.3 377.581C1349.8 375.728 1352.17 372.846 1353.41 368.934C1354.64 364.816 1355.26 358.845 1355.26 351.021V200.922C1355.26 193.098 1354.64 187.436 1353.41 183.936C1352.17 180.435 1349.8 178.067 1346.3 176.832C1343.01 175.597 1337.65 174.773 1330.24 174.361V168.184C1337.04 168.802 1346.61 169.111 1358.97 169.111C1368.23 169.111 1376.26 168.802 1383.06 168.184L1492.08 336.196V204.01C1492.08 195.98 1491.36 190.009 1489.92 186.097C1488.68 182.185 1486.11 179.406 1482.19 177.759C1478.28 175.906 1472.21 174.773 1463.97 174.361V168.184C1471.38 168.802 1481.89 169.111 1495.47 169.111C1507.83 169.111 1517.4 168.802 1524.2 168.184V174.361ZM1708.64 360.904C1713.58 373.669 1720.68 380.258 1729.95 380.67V386.847C1721.71 386.229 1710.7 385.92 1696.9 385.92C1679.19 385.92 1666.02 386.229 1657.37 386.847V380.67C1665.19 380.258 1670.75 379.331 1674.05 377.89C1677.55 376.243 1679.3 373.36 1679.3 369.243C1679.3 365.742 1678.06 360.904 1675.59 354.727L1656.75 304.076H1582.01L1569.35 336.814C1565.23 347.932 1563.17 356.374 1563.17 362.139C1563.17 368.522 1565.33 373.155 1569.66 376.037C1574.19 378.92 1580.98 380.464 1590.04 380.67V386.847C1578.31 386.229 1566.47 385.92 1554.52 385.92C1545.26 385.92 1537.54 386.229 1531.36 386.847V380.67C1541.66 378.199 1549.79 369.243 1555.76 353.8L1628.34 166.64H1633.28L1708.64 360.904ZM1654.28 297.899L1619.69 205.555L1584.48 297.899H1654.28Z" fill="white"/>
</svg>
