<svg width="1886" height="322" viewBox="0 0 1886 322" fill="none" xmlns="http://www.w3.org/2000/svg">
<path d="M552.182 231.63C557.124 244.396 564.227 250.984 573.492 251.396V257.573C565.256 256.955 554.241 256.647 540.446 256.647C522.739 256.647 509.561 256.955 500.914 257.573V251.396C508.738 250.984 514.297 250.058 517.591 248.617C521.092 246.969 522.842 244.087 522.842 239.969C522.842 236.469 521.606 231.63 519.136 225.453L500.296 174.803H425.556L412.893 207.54C408.775 218.659 406.716 227.1 406.716 232.866C406.716 239.248 408.878 243.881 413.202 246.764C417.731 249.646 424.526 251.19 433.586 251.396V257.573C421.849 256.955 410.01 256.647 398.068 256.647C388.803 256.647 381.082 256.955 374.905 257.573V251.396C385.2 248.925 393.333 239.969 399.304 224.527L471.882 37.3666H476.824L552.182 231.63ZM497.825 168.626L463.235 76.2811L428.026 168.626H497.825ZM772.497 45.0878C765.291 45.4996 759.937 46.632 756.437 48.4851C752.937 50.1322 750.569 53.0148 749.334 57.1327C748.098 61.0448 747.481 66.9128 747.481 74.7369V259.117H740.377L610.662 58.6769V221.747C610.662 229.777 611.28 235.748 612.515 239.66C613.957 243.572 616.633 246.455 620.545 248.308C624.457 249.955 630.531 250.984 638.767 251.396V257.573C631.355 256.955 620.854 256.647 607.265 256.647C594.911 256.647 585.337 256.955 578.542 257.573V251.396C585.749 250.984 591.102 249.955 594.602 248.308C598.103 246.455 600.47 243.572 601.706 239.66C602.941 235.542 603.559 229.571 603.559 221.747V71.6484C603.559 63.8244 602.941 58.1622 601.706 54.662C600.47 51.1617 598.103 48.7939 594.602 47.5585C591.308 46.3231 585.955 45.4996 578.542 45.0878V38.9109C585.337 39.5286 594.911 39.8374 607.265 39.8374C616.53 39.8374 624.56 39.5286 631.355 38.9109L740.377 206.923V74.7369C740.377 66.7069 739.657 60.7359 738.215 56.8239C736.98 52.9118 734.406 50.1322 730.494 48.4851C726.582 46.632 720.508 45.4996 712.272 45.0878V38.9109C719.685 39.5286 730.185 39.8374 743.774 39.8374C756.128 39.8374 765.702 39.5286 772.497 38.9109V45.0878ZM897.647 34.587C909.795 34.587 919.781 36.3372 927.605 39.8374C935.429 43.1318 943.974 48.0733 953.239 54.662C955.916 56.7209 957.975 57.7504 959.416 57.7504C963.328 57.7504 965.902 51.4706 967.137 38.9109H974.24C973.417 52.2942 973.005 75.9723 973.005 109.945H965.902C964.048 99.0327 962.092 90.0762 960.034 83.0757C957.975 75.8693 954.783 69.5895 950.459 64.2362C944.488 56.8239 936.664 50.9558 926.987 46.632C917.516 42.3082 907.53 40.1462 897.029 40.1462C883.44 40.1462 871.498 44.573 861.203 53.4266C850.908 62.2801 842.981 74.9428 837.422 91.4145C831.863 107.68 829.083 126.726 829.083 148.551C829.083 185.612 834.951 212.791 846.687 230.086C858.629 247.175 877.263 255.72 902.588 255.72C914.942 255.72 925.649 252.529 934.708 246.146C938.414 243.675 940.782 241.307 941.812 239.042C943.047 236.572 943.665 233.277 943.665 229.159V199.51C943.665 190.863 942.841 184.583 941.194 180.671C939.547 176.759 936.664 174.082 932.546 172.641C928.428 171.199 921.737 170.273 912.471 169.861V163.684C923.178 164.302 937.694 164.611 956.019 164.611C970.02 164.611 980.726 164.302 988.138 163.684V169.861C983.403 170.273 979.903 171.097 977.638 172.332C975.579 173.567 974.137 175.935 973.314 179.435C972.696 182.936 972.387 188.598 972.387 196.422V257.573H966.21C966.005 253.455 965.181 249.543 963.74 245.837C962.298 241.925 960.342 239.969 957.872 239.969C956.636 239.969 955.401 240.278 954.165 240.895C952.93 241.513 950.768 242.954 947.68 245.219C940.473 250.779 932.958 254.896 925.134 257.573C917.516 260.456 908.971 261.897 899.5 261.897C878.293 261.897 860.071 257.573 844.834 248.925C829.804 240.072 818.274 227.409 810.244 210.938C802.214 194.466 798.199 174.803 798.199 151.948C798.199 128.476 802.42 107.886 810.861 90.1791C819.509 72.2661 831.348 58.574 846.379 49.1028C861.409 39.4256 878.498 34.587 897.647 34.587ZM1169.78 218.041C1169.78 229.777 1170.5 242.954 1171.94 257.573C1157.94 256.955 1134.36 256.647 1101.21 256.647C1061.68 256.647 1031.83 256.955 1011.65 257.573V251.396C1019.06 250.984 1024.41 250.161 1027.71 248.925C1031.21 247.69 1033.58 245.322 1034.81 241.822C1036.05 238.322 1036.67 232.66 1036.67 224.836V71.6484C1036.67 63.8244 1036.05 58.1622 1034.81 54.662C1033.58 51.1617 1031.21 48.7939 1027.71 47.5585C1024.41 46.3231 1019.06 45.4996 1011.65 45.0878V38.9109C1031.83 39.5286 1061.68 39.8374 1101.21 39.8374C1131.48 39.8374 1153 39.5286 1165.76 38.9109C1164.32 52.5001 1163.6 64.648 1163.6 75.3546C1163.6 83.3846 1163.91 89.7674 1164.53 94.503H1157.42C1155.98 81.1197 1154.13 71.2366 1151.86 64.8539C1149.6 58.2652 1145.79 53.5295 1140.44 50.647C1135.08 47.5585 1126.95 46.0143 1116.04 46.0143H1090.4C1082.99 46.0143 1077.54 46.632 1074.04 47.8674C1070.74 48.8969 1068.48 51.1617 1067.24 54.662C1066.01 58.1622 1065.39 63.8244 1065.39 71.6484V144.536H1085.77C1092.98 144.536 1098.54 142.889 1102.45 139.594C1106.36 136.094 1108.94 132.079 1110.17 127.549C1111.61 122.814 1112.74 116.946 1113.57 109.945L1114.49 103.768H1121.6C1120.98 112.416 1120.67 122.093 1120.67 132.8V147.624C1120.67 158.125 1121.29 172.744 1122.52 191.48H1115.42C1115.22 190.039 1114.6 185.097 1113.57 176.656C1112.54 168.008 1109.66 161.522 1104.92 157.198C1100.39 152.875 1094.01 150.713 1085.77 150.713H1065.39V224.836C1065.39 232.66 1066.01 238.322 1067.24 241.822C1068.48 245.322 1070.74 247.69 1074.04 248.925C1077.54 249.955 1082.99 250.47 1090.4 250.47H1112.95C1125.72 250.47 1135.39 248.823 1141.98 245.528C1148.78 242.028 1153.72 236.572 1156.81 229.159C1159.89 221.541 1162.16 210.423 1163.6 195.804H1170.7C1170.09 201.363 1169.78 208.776 1169.78 218.041ZM1278.61 45.0878C1271.19 45.4996 1265.74 46.3231 1262.24 47.5585C1258.94 48.7939 1256.68 51.1617 1255.44 54.662C1254.21 58.1622 1253.59 63.8244 1253.59 71.6484V224.836C1253.59 232.66 1254.21 238.322 1255.44 241.822C1256.68 245.322 1258.94 247.69 1262.24 248.925C1265.74 249.955 1271.19 250.47 1278.61 250.47H1301.15C1313.92 250.47 1323.6 248.72 1330.18 245.219C1336.98 241.513 1341.92 235.645 1345.01 227.615C1348.1 219.585 1350.36 207.952 1351.8 192.716H1358.91C1358.29 199.098 1357.98 207.54 1357.98 218.041C1357.98 229.777 1358.7 242.954 1360.14 257.573C1346.14 256.955 1322.57 256.647 1289.42 256.647C1249.88 256.647 1220.03 256.955 1199.85 257.573V251.396C1207.26 250.984 1212.62 250.161 1215.91 248.925C1219.41 247.69 1221.78 245.322 1223.01 241.822C1224.25 238.322 1224.87 232.66 1224.87 224.836V71.6484C1224.87 63.8244 1224.25 58.1622 1223.01 54.662C1221.78 51.1617 1219.41 48.7939 1215.91 47.5585C1212.62 46.3231 1207.26 45.4996 1199.85 45.0878V38.9109C1208.5 39.5286 1221.68 39.8374 1239.38 39.8374C1255.86 39.8374 1268.93 39.5286 1278.61 38.9109V45.0878ZM1460.17 45.0878C1452.76 45.4996 1447.31 46.3231 1443.81 47.5585C1440.51 48.7939 1438.25 51.1617 1437.01 54.662C1435.78 58.1622 1435.16 63.8244 1435.16 71.6484V224.836C1435.16 232.66 1435.78 238.322 1437.01 241.822C1438.25 245.322 1440.51 247.69 1443.81 248.925C1447.31 250.161 1452.76 250.984 1460.17 251.396V257.573C1450.7 256.955 1437.63 256.647 1420.95 256.647C1403.24 256.647 1390.07 256.955 1381.42 257.573V251.396C1388.83 250.984 1394.18 250.161 1397.48 248.925C1400.98 247.69 1403.35 245.322 1404.58 241.822C1405.82 238.322 1406.44 232.66 1406.44 224.836V71.6484C1406.44 63.8244 1405.82 58.1622 1404.58 54.662C1403.35 51.1617 1400.98 48.7939 1397.48 47.5585C1394.18 46.3231 1388.83 45.4996 1381.42 45.0878V38.9109C1390.07 39.5286 1403.24 39.8374 1420.95 39.8374C1437.42 39.8374 1450.5 39.5286 1460.17 38.9109V45.0878ZM1680.03 45.0878C1672.82 45.4996 1667.47 46.632 1663.97 48.4851C1660.47 50.1322 1658.1 53.0148 1656.87 57.1327C1655.63 61.0448 1655.01 66.9128 1655.01 74.7369V259.117H1647.91L1518.2 58.6769V221.747C1518.2 229.777 1518.81 235.748 1520.05 239.66C1521.49 243.572 1524.17 246.455 1528.08 248.308C1531.99 249.955 1538.07 250.984 1546.3 251.396V257.573C1538.89 256.955 1528.39 256.647 1514.8 256.647C1502.44 256.647 1492.87 256.955 1486.08 257.573V251.396C1493.28 250.984 1498.64 249.955 1502.14 248.308C1505.64 246.455 1508 243.572 1509.24 239.66C1510.47 235.542 1511.09 229.571 1511.09 221.747V71.6484C1511.09 63.8244 1510.47 58.1622 1509.24 54.662C1508 51.1617 1505.64 48.7939 1502.14 47.5585C1498.84 46.3231 1493.49 45.4996 1486.08 45.0878V38.9109C1492.87 39.5286 1502.44 39.8374 1514.8 39.8374C1524.06 39.8374 1532.09 39.5286 1538.89 38.9109L1647.91 206.923V74.7369C1647.91 66.7069 1647.19 60.7359 1645.75 56.8239C1644.51 52.9118 1641.94 50.1322 1638.03 48.4851C1634.12 46.632 1628.04 45.4996 1619.81 45.0878V38.9109C1627.22 39.5286 1637.72 39.8374 1651.31 39.8374C1663.66 39.8374 1673.24 39.5286 1680.03 38.9109V45.0878ZM1864.47 231.63C1869.41 244.396 1876.52 250.984 1885.78 251.396V257.573C1877.55 256.955 1866.53 256.647 1852.74 256.647C1835.03 256.647 1821.85 256.955 1813.2 257.573V251.396C1821.03 250.984 1826.59 250.058 1829.88 248.617C1833.38 246.969 1835.13 244.087 1835.13 239.969C1835.13 236.469 1833.9 231.63 1831.43 225.453L1812.59 174.803H1737.85L1725.18 207.54C1721.06 218.659 1719.01 227.1 1719.01 232.866C1719.01 239.248 1721.17 243.881 1725.49 246.764C1730.02 249.646 1736.82 251.19 1745.88 251.396V257.573C1734.14 256.955 1722.3 256.647 1710.36 256.647C1701.09 256.647 1693.37 256.955 1687.19 257.573V251.396C1697.49 248.925 1705.62 239.969 1711.59 224.527L1784.17 37.3666H1789.11L1864.47 231.63ZM1810.11 168.626L1775.52 76.2811L1740.32 168.626H1810.11Z" fill="#152B47"/>
<mask id="mask0_262:2470" style="mask-type:alpha" maskUnits="userSpaceOnUse" x="1" y="13" width="299" height="309">
<path d="M2.30183 46.004L25.1158 14.539C25.492 14.0202 26.0941 13.713 26.735 13.713H298C299.104 13.713 300 14.6084 300 15.713V47.178C300 48.2826 299.104 49.178 298 49.178H3.921C2.28776 49.178 1.34311 47.3263 2.30183 46.004Z" fill="#F32266"/>
<path d="M2.30134 91.4691L25.1153 60.004C25.4915 59.4852 26.0936 59.178 26.7345 59.178H297.999C299.104 59.178 299.999 60.0735 299.999 61.178V92.6431C299.999 93.7476 299.104 94.6431 297.999 94.6431H3.92051C2.28727 94.6431 1.34262 92.7913 2.30134 91.4691Z" fill="#F32266"/>
<path d="M2.30134 136.934L25.1153 105.469C25.4915 104.95 26.0936 104.643 26.7345 104.643H297.999C299.104 104.643 299.999 105.538 299.999 106.643V138.108C299.999 139.213 299.104 140.108 297.999 140.108H3.92051C2.28727 140.108 1.34262 138.256 2.30134 136.934Z" fill="#F32266"/>
<path d="M2.30134 182.399L25.1153 150.934C25.4915 150.415 26.0936 150.108 26.7345 150.108H297.999C299.104 150.108 299.999 151.004 299.999 152.108V183.573C299.999 184.678 299.104 185.573 297.999 185.573H3.92051C2.28727 185.573 1.34262 183.721 2.30134 182.399Z" fill="#F32266"/>
<path d="M2.30134 227.864L25.1153 196.399C25.4915 195.88 26.0936 195.573 26.7345 195.573H297.999C299.104 195.573 299.999 196.469 299.999 197.573V229.038C299.999 230.143 299.104 231.038 297.999 231.038H3.92051C2.28727 231.038 1.34262 229.186 2.30134 227.864Z" fill="#F32266"/>
<path d="M2.30134 273.329L25.1153 241.864C25.4915 241.345 26.0936 241.038 26.7345 241.038H297.999C299.104 241.038 299.999 241.934 299.999 243.038V274.503C299.999 275.608 299.104 276.503 297.999 276.503H3.92051C2.28727 276.503 1.34262 274.651 2.30134 273.329Z" fill="#F32266"/>
<path d="M2.30134 318.794L25.1153 287.329C25.4915 286.81 26.0936 286.503 26.7345 286.503H297.999C299.104 286.503 299.999 287.399 299.999 288.503V319.968C299.999 321.073 299.104 321.968 297.999 321.968H3.92051C2.28727 321.968 1.34262 320.116 2.30134 318.794Z" fill="#F32266"/>
</mask>
<g mask="url(#mask0_262:2470)">
<path d="M300 0H-20.0005V320C211.024 320 289.593 106.667 300 0Z" fill="#F32266"/>
</g>
</svg>
