<?xml version="1.0" encoding="utf-8"?>
<!-- Generator: Adobe Illustrator 25.4.1, SVG Export Plug-In . SVG Version: 6.00 Build 0)  -->
<svg version="1.1" id="Layer_1" xmlns="http://www.w3.org/2000/svg" xmlns:xlink="http://www.w3.org/1999/xlink" x="0px" y="0px"
	 viewBox="0 0 1839.67 327" style="enable-background:new 0 0 1839.67 327;" xml:space="preserve">
<style type="text/css">
	.st0{clip-path:url(#SVGID_00000182514543330021616350000005934964992700993466_);}
	.st1{fill:#F32266;}
	.st2{clip-path:url(#SVGID_00000142170527734130787880000009170751766298544797_);}
	.st3{fill:#152B47;}
</style>
<g>
	<defs>
		<path id="SVGID_1_" d="M0,324c170.1,0,308-143.72,308-321H0V324z"/>
	</defs>
	<clipPath id="SVGID_00000166672268691088279100000005507887399266361519_">
		<use xlink:href="#SVGID_1_"  style="overflow:visible;"/>
	</clipPath>
	<g style="clip-path:url(#SVGID_00000166672268691088279100000005507887399266361519_);">
		<path class="st1" d="M39.41,23.78L15.9,54.83c-0.99,1.3-0.06,3.17,1.58,3.17h424.54c1.09,0,1.98-0.89,1.98-1.98V24.98
			c0-1.09-0.89-1.98-1.98-1.98H40.98C40.36,23,39.78,23.29,39.41,23.78z"/>
		<path class="st1" d="M39.41,69.78l-23.5,31.04c-0.99,1.3-0.06,3.17,1.58,3.17h424.54c1.09,0,1.98-0.89,1.98-1.98V70.98
			c0-1.09-0.89-1.98-1.98-1.98H40.98C40.36,69,39.78,69.29,39.41,69.78z"/>
		<path class="st1" d="M39.41,114.78l-23.5,31.04c-0.99,1.3-0.06,3.17,1.58,3.17h424.54c1.09,0,1.98-0.89,1.98-1.98v-31.04
			c0-1.09-0.89-1.98-1.98-1.98H40.98C40.36,114,39.78,114.29,39.41,114.78z"/>
		<path class="st1" d="M39.41,159.78l-23.5,31.04c-0.99,1.3-0.06,3.17,1.58,3.17h424.54c1.09,0,1.98-0.89,1.98-1.98v-31.04
			c0-1.09-0.89-1.98-1.98-1.98H40.98C40.36,159,39.78,159.29,39.41,159.78z"/>
		<path class="st1" d="M39.41,205.78l-23.5,31.04c-0.99,1.3-0.06,3.17,1.58,3.17h424.54c1.09,0,1.98-0.89,1.98-1.98v-31.04
			c0-1.09-0.89-1.98-1.98-1.98H40.98C40.36,205,39.78,205.29,39.41,205.78z"/>
		<path class="st1" d="M39.41,249.78l-23.5,31.04c-0.99,1.3-0.06,3.17,1.58,3.17h424.54c1.09,0,1.98-0.89,1.98-1.98v-31.04
			c0-1.09-0.89-1.98-1.98-1.98H40.98C40.36,249,39.78,249.29,39.41,249.78z"/>
		<path class="st1" d="M39.41,295.78l-23.5,31.04c-0.99,1.3-0.06,3.17,1.58,3.17h424.54c1.09,0,1.98-0.89,1.98-1.98v-31.04
			c0-1.09-0.89-1.98-1.98-1.98H40.98C40.36,295,39.78,295.29,39.41,295.78z"/>
	</g>
</g>
<g>
	<defs>
		<path id="SVGID_00000108295208179952800980000001817578101078595236_" d="M-410.12,329.2c183.61,0,332.45-155.12,332.45-346.48
			h-332.45V329.2z"/>
	</defs>
	<clipPath id="SVGID_00000175280836881183033530000017683367990450563485_">
		<use xlink:href="#SVGID_00000108295208179952800980000001817578101078595236_"  style="overflow:visible;"/>
	</clipPath>
	<g style="clip-path:url(#SVGID_00000175280836881183033530000017683367990450563485_);">
		<path class="st1" d="M-367.58,49.34l-25.37,52.22c-1.07,2.19-0.06,5.34,1.7,5.34H66.99c1.18,0,2.14-1.49,2.14-3.33V51.35
			c0-1.84-0.96-3.33-2.14-3.33h-432.87C-366.55,48.02-367.18,48.51-367.58,49.34z"/>
		<path class="st1" d="M-367.58,126.72l-25.37,52.22c-1.07,2.19-0.06,5.34,1.7,5.34H66.99c1.18,0,2.14-1.49,2.14-3.33v-52.22
			c0-1.84-0.96-3.33-2.14-3.33h-432.87C-366.55,125.4-367.18,125.89-367.58,126.72z"/>
		<path class="st1" d="M-367.58,200.73l-25.37,52.22c-1.07,2.19-0.06,5.34,1.7,5.34H66.99c1.18,0,2.14-1.49,2.14-3.33v-52.22
			c0-1.84-0.96-3.33-2.14-3.33h-432.87C-366.55,199.41-367.18,199.9-367.58,200.73z"/>
		<path class="st1" d="M-367.58,278.12l-25.37,52.22c-1.07,2.19-0.06,5.34,1.7,5.34H66.99c1.18,0,2.14-1.49,2.14-3.33v-52.22
			c0-1.84-0.96-3.33-2.14-3.33h-432.87C-366.55,276.8-367.18,277.28-367.58,278.12z"/>
	</g>
</g>
<path class="st3" d="M485.28,240.12c4.94,12.77,12.04,19.35,21.31,19.77v6.18c-8.24-0.62-19.25-0.93-33.05-0.93
	c-17.71,0-30.88,0.31-39.53,0.93v-6.18c7.82-0.41,13.38-1.34,16.68-2.78c3.5-1.65,5.25-4.53,5.25-8.65c0-3.5-1.24-8.34-3.71-14.52
	l-18.84-50.65h-74.74l-12.66,32.74c-4.12,11.12-6.18,19.56-6.18,25.33c0,6.38,2.16,11.01,6.49,13.9c4.53,2.88,11.32,4.43,20.38,4.63
	v6.18c-11.74-0.62-23.58-0.93-35.52-0.93c-9.26,0-16.99,0.31-23.16,0.93v-6.18c10.3-2.47,18.43-11.43,24.4-26.87l72.58-187.16h4.94
	L485.28,240.12z M430.92,177.11l-34.59-92.34l-35.21,92.34H430.92z M705.59,53.57c-7.21,0.41-12.56,1.54-16.06,3.4
	c-3.5,1.65-5.87,4.53-7.1,8.65c-1.24,3.91-1.85,9.78-1.85,17.6V267.6h-7.1L543.76,67.16v163.07c0,8.03,0.62,14,1.85,17.91
	c1.44,3.91,4.12,6.79,8.03,8.65c3.91,1.65,9.99,2.68,18.22,3.09v6.18c-7.41-0.62-17.91-0.93-31.5-0.93
	c-12.35,0-21.93,0.31-28.72,0.93v-6.18c7.21-0.41,12.56-1.44,16.06-3.09c3.5-1.85,5.87-4.74,7.1-8.65
	c1.23-4.12,1.85-10.09,1.85-17.91V80.13c0-7.82-0.62-13.49-1.85-16.99c-1.24-3.5-3.6-5.87-7.1-7.1c-3.29-1.24-8.65-2.06-16.06-2.47
	V47.4c6.79,0.62,16.37,0.93,28.72,0.93c9.27,0,17.29-0.31,24.09-0.93l109.02,168.01V83.22c0-8.03-0.72-14-2.16-17.91
	c-1.24-3.91-3.81-6.69-7.72-8.34c-3.91-1.85-9.99-2.99-18.22-3.4V47.4c7.41,0.62,17.91,0.93,31.5,0.93
	c12.35,0,21.93-0.31,28.72-0.93V53.57z M830.74,43.07c12.15,0,22.13,1.75,29.96,5.25c7.82,3.29,16.37,8.24,25.63,14.82
	c2.68,2.06,4.74,3.09,6.18,3.09c3.91,0,6.49-6.28,7.72-18.84h7.1c-0.82,13.38-1.23,37.06-1.23,71.03H899
	c-1.85-10.91-3.81-19.87-5.87-26.87c-2.06-7.21-5.25-13.49-9.58-18.84c-5.97-7.41-13.79-13.28-23.47-17.6
	c-9.47-4.32-19.46-6.49-29.96-6.49c-13.59,0-25.53,4.43-35.83,13.28C784,70.77,776.08,83.43,770.52,99.9
	c-5.56,16.27-8.34,35.31-8.34,57.14c0,37.06,5.87,64.24,17.6,81.54c11.94,17.09,30.58,25.63,55.9,25.63
	c12.35,0,23.06-3.19,32.12-9.57c3.71-2.47,6.07-4.84,7.1-7.1c1.23-2.47,1.85-5.77,1.85-9.88V208c0-8.65-0.82-14.93-2.47-18.84
	c-1.65-3.91-4.53-6.59-8.65-8.03c-4.12-1.44-10.81-2.37-20.08-2.78v-6.18c10.71,0.62,25.22,0.93,43.55,0.93
	c14,0,24.71-0.31,32.12-0.93v6.18c-4.73,0.41-8.23,1.24-10.5,2.47c-2.06,1.24-3.5,3.6-4.32,7.1c-0.62,3.5-0.93,9.16-0.93,16.99
	v61.15h-6.18c-0.21-4.12-1.03-8.03-2.47-11.74c-1.44-3.91-3.4-5.87-5.87-5.87c-1.24,0-2.47,0.31-3.71,0.93
	c-1.23,0.62-3.4,2.06-6.48,4.32c-7.21,5.56-14.72,9.68-22.55,12.35c-7.62,2.88-16.16,4.32-25.63,4.32
	c-21.21,0-39.43-4.32-54.67-12.97c-15.03-8.85-26.56-21.52-34.59-37.99c-8.03-16.47-12.05-36.14-12.05-58.99
	c0-23.47,4.22-44.06,12.66-61.77c8.65-17.91,20.49-31.61,35.52-41.08C794.5,47.91,811.59,43.07,830.74,43.07z M1102.88,226.53
	c0,11.74,0.72,24.91,2.16,39.53c-14-0.62-37.58-0.93-70.73-0.93c-39.53,0-69.38,0.31-89.56,0.93v-6.18
	c7.41-0.41,12.76-1.23,16.06-2.47c3.5-1.24,5.87-3.6,7.1-7.1c1.24-3.5,1.86-9.16,1.86-16.99V80.13c0-7.82-0.62-13.49-1.86-16.99
	c-1.23-3.5-3.6-5.87-7.1-7.1c-3.3-1.24-8.65-2.06-16.06-2.47V47.4c20.18,0.62,50.03,0.93,89.56,0.93c30.27,0,51.79-0.31,64.55-0.93
	c-1.44,13.59-2.16,25.74-2.16,36.44c0,8.03,0.31,14.41,0.93,19.15h-7.11c-1.44-13.38-3.29-23.27-5.56-29.65
	c-2.26-6.59-6.07-11.32-11.42-14.21c-5.36-3.09-13.49-4.63-24.4-4.63h-25.64c-7.41,0-12.86,0.62-16.36,1.85
	c-3.3,1.03-5.56,3.29-6.8,6.79c-1.23,3.5-1.85,9.16-1.85,16.99v72.89h20.38c7.21,0,12.77-1.65,16.68-4.94
	c3.91-3.5,6.49-7.51,7.72-12.04c1.44-4.74,2.57-10.6,3.4-17.6l0.92-6.18h7.11c-0.62,8.65-0.93,18.32-0.93,29.03v14.82
	c0,10.5,0.62,25.12,1.85,43.86h-7.1c-0.2-1.44-0.82-6.38-1.85-14.82c-1.03-8.65-3.91-15.13-8.65-19.46
	c-4.53-4.32-10.91-6.49-19.15-6.49h-20.38v74.12c0,7.82,0.62,13.49,1.85,16.99c1.24,3.5,3.5,5.87,6.8,7.1
	c3.5,1.03,8.95,1.54,16.36,1.54h22.55c12.77,0,22.44-1.65,29.03-4.94c6.8-3.5,11.74-8.96,14.83-16.37
	c3.08-7.62,5.35-18.74,6.79-33.35h7.1C1103.19,209.85,1102.88,217.26,1102.88,226.53z M1211.71,53.57
	c-7.42,0.41-12.87,1.24-16.37,2.47c-3.3,1.24-5.56,3.6-6.8,7.1c-1.23,3.5-1.85,9.16-1.85,16.99v153.19c0,7.82,0.62,13.49,1.85,16.99
	c1.24,3.5,3.5,5.87,6.8,7.1c3.5,1.03,8.95,1.54,16.37,1.54h22.54c12.77,0,22.45-1.75,29.03-5.25c6.8-3.71,11.74-9.57,14.83-17.6
	s5.35-19.66,6.79-34.9h7.11c-0.62,6.38-0.93,14.82-0.93,25.32c0,11.74,0.72,24.91,2.16,39.53c-14-0.62-37.57-0.93-70.72-0.93
	c-39.54,0-69.39,0.31-89.57,0.93v-6.18c7.41-0.41,12.77-1.23,16.06-2.47c3.5-1.24,5.87-3.6,7.1-7.1c1.24-3.5,1.86-9.16,1.86-16.99
	V80.13c0-7.82-0.62-13.49-1.86-16.99c-1.23-3.5-3.6-5.87-7.1-7.1c-3.29-1.24-8.65-2.06-16.06-2.47V47.4
	c8.65,0.62,21.83,0.93,39.53,0.93c16.48,0,29.55-0.31,39.23-0.93V53.57z M1393.27,53.57c-7.41,0.41-12.86,1.24-16.36,2.47
	c-3.3,1.24-5.56,3.6-6.8,7.1c-1.23,3.5-1.85,9.16-1.85,16.99v153.19c0,7.82,0.62,13.49,1.85,16.99c1.24,3.5,3.5,5.87,6.8,7.1
	c3.5,1.24,8.95,2.06,16.36,2.47v6.18c-9.47-0.62-22.54-0.93-39.22-0.93c-17.71,0-30.88,0.31-39.53,0.93v-6.18
	c7.41-0.41,12.76-1.23,16.06-2.47c3.5-1.24,5.87-3.6,7.1-7.1c1.24-3.5,1.86-9.16,1.86-16.99V80.13c0-7.82-0.62-13.49-1.86-16.99
	c-1.23-3.5-3.6-5.87-7.1-7.1c-3.3-1.24-8.65-2.06-16.06-2.47V47.4c8.65,0.62,21.82,0.93,39.53,0.93c16.47,0,29.55-0.31,39.22-0.93
	V53.57z M1613.13,53.57c-7.21,0.41-12.56,1.54-16.06,3.4c-3.5,1.65-5.87,4.53-7.1,8.65c-1.24,3.91-1.86,9.78-1.86,17.6V267.6h-7.1
	L1451.3,67.16v163.07c0,8.03,0.61,14,1.85,17.91c1.44,3.91,4.12,6.79,8.03,8.65c3.91,1.65,9.99,2.68,18.22,3.09v6.18
	c-7.41-0.62-17.91-0.93-31.5-0.93c-12.36,0-21.93,0.31-28.72,0.93v-6.18c7.2-0.41,12.56-1.44,16.06-3.09
	c3.5-1.85,5.86-4.74,7.1-8.65c1.23-4.12,1.85-10.09,1.85-17.91V80.13c0-7.82-0.62-13.49-1.85-16.99c-1.24-3.5-3.6-5.87-7.1-7.1
	c-3.3-1.24-8.65-2.06-16.06-2.47V47.4c6.79,0.62,16.36,0.93,28.72,0.93c9.26,0,17.29-0.31,24.09-0.93l109.02,168.01V83.22
	c0-8.03-0.72-14-2.16-17.91c-1.24-3.91-3.81-6.69-7.72-8.34c-3.91-1.85-9.99-2.99-18.22-3.4V47.4c7.41,0.62,17.91,0.93,31.5,0.93
	c12.35,0,21.93-0.31,28.72-0.93V53.57z M1797.57,240.12c4.94,12.77,12.05,19.35,21.31,19.77v6.18c-8.23-0.62-19.25-0.93-33.04-0.93
	c-17.71,0-30.89,0.31-39.54,0.93v-6.18c7.83-0.41,13.39-1.34,16.68-2.78c3.5-1.65,5.25-4.53,5.25-8.65c0-3.5-1.23-8.34-3.7-14.52
	l-18.84-50.65h-74.74l-12.67,32.74c-4.12,11.12-6.17,19.56-6.17,25.33c0,6.38,2.16,11.01,6.48,13.9c4.53,2.88,11.33,4.43,20.39,4.63
	v6.18c-11.74-0.62-23.58-0.93-35.52-0.93c-9.27,0-16.99,0.31-23.17,0.93v-6.18c10.3-2.47,18.43-11.43,24.4-26.87l72.58-187.16h4.94
	L1797.57,240.12z M1743.21,177.11l-34.59-92.34l-35.2,92.34H1743.21z"/>
</svg>
