<?xml version="1.0" encoding="utf-8"?>
<!-- Generator: Adobe Illustrator 25.4.1, SVG Export Plug-In . SVG Version: 6.00 Build 0)  -->
<svg version="1.1" id="Layer_1" xmlns="http://www.w3.org/2000/svg" xmlns:xlink="http://www.w3.org/1999/xlink" x="0px" y="0px"
	 viewBox="0 0 323 327" style="enable-background:new 0 0 323 327;" xml:space="preserve">
<style type="text/css">
	.st0{clip-path:url(#SVGID_00000129177715967945862950000016686800846345880221_);}
	.st1{fill:#F32266;}
	.st2{clip-path:url(#SVGID_00000155146722564039899040000000376532227389391039_);}
</style>
<g>
	<defs>
		<path id="SVGID_1_" d="M-338,318C-167.9,318-30,174.28-30-3h-308V318z"/>
	</defs>
	<clipPath id="SVGID_00000015320933991039699760000003915612799721831822_">
		<use xlink:href="#SVGID_1_"  style="overflow:visible;"/>
	</clipPath>
	<g style="clip-path:url(#SVGID_00000015320933991039699760000003915612799721831822_);">
		<path class="st1" d="M-298.59,17.78l-23.5,31.04c-0.99,1.3-0.06,3.17,1.58,3.17h424.54c1.09,0,1.98-0.89,1.98-1.98V18.98
			c0-1.09-0.89-1.98-1.98-1.98h-401.04C-297.64,17-298.22,17.29-298.59,17.78z"/>
		<path class="st1" d="M-298.59,63.78l-23.5,31.04c-0.99,1.3-0.06,3.17,1.58,3.17h424.54c1.09,0,1.98-0.89,1.98-1.98V64.98
			c0-1.09-0.89-1.98-1.98-1.98h-401.04C-297.64,63-298.22,63.29-298.59,63.78z"/>
		<path class="st1" d="M-298.59,108.78l-23.5,31.04c-0.99,1.3-0.06,3.17,1.58,3.17h424.54c1.09,0,1.98-0.89,1.98-1.98v-31.04
			c0-1.09-0.89-1.98-1.98-1.98h-401.04C-297.64,108-298.22,108.29-298.59,108.78z"/>
		<path class="st1" d="M-298.59,153.78l-23.5,31.04c-0.99,1.3-0.06,3.17,1.58,3.17h424.54c1.09,0,1.98-0.89,1.98-1.98v-31.04
			c0-1.09-0.89-1.98-1.98-1.98h-401.04C-297.64,153-298.22,153.29-298.59,153.78z"/>
		<path class="st1" d="M-298.59,199.78l-23.5,31.04c-0.99,1.3-0.06,3.17,1.58,3.17h424.54c1.09,0,1.98-0.89,1.98-1.98v-31.04
			c0-1.09-0.89-1.98-1.98-1.98h-401.04C-297.64,199-298.22,199.29-298.59,199.78z"/>
		<path class="st1" d="M-298.59,243.78l-23.5,31.04c-0.99,1.3-0.06,3.17,1.58,3.17h424.54c1.09,0,1.98-0.89,1.98-1.98v-31.04
			c0-1.09-0.89-1.98-1.98-1.98h-401.04C-297.64,243-298.22,243.29-298.59,243.78z"/>
		<path class="st1" d="M-298.59,289.78l-23.5,31.04c-0.99,1.3-0.06,3.17,1.58,3.17h424.54c1.09,0,1.98-0.89,1.98-1.98v-31.04
			c0-1.09-0.89-1.98-1.98-1.98h-401.04C-297.64,289-298.22,289.29-298.59,289.78z"/>
	</g>
</g>
<g>
	<defs>
		<path id="SVGID_00000145046948646426223380000007322374688772894356_" d="M-7.45,305.14C176.16,305.14,325,150.02,325-41.34H-7.45
			V305.14z"/>
	</defs>
	<clipPath id="SVGID_00000025424159963523496740000003728508737098219907_">
		<use xlink:href="#SVGID_00000145046948646426223380000007322374688772894356_"  style="overflow:visible;"/>
	</clipPath>
	<g style="clip-path:url(#SVGID_00000025424159963523496740000003728508737098219907_);">
		<path class="st1" d="M35.09,25.28L9.72,77.5c-1.07,2.19-0.06,5.34,1.7,5.34h458.24c1.18,0,2.14-1.49,2.14-3.33V27.3
			c0-1.84-0.96-3.33-2.14-3.33H36.79C36.12,23.96,35.49,24.45,35.09,25.28z"/>
		<path class="st1" d="M35.09,102.67L9.72,154.88c-1.07,2.19-0.06,5.34,1.7,5.34h458.24c1.18,0,2.14-1.49,2.14-3.33v-52.22
			c0-1.84-0.96-3.33-2.14-3.33H36.79C36.12,101.35,35.49,101.83,35.09,102.67z"/>
		<path class="st1" d="M35.09,176.68L9.72,228.9c-1.07,2.19-0.06,5.34,1.7,5.34h458.24c1.18,0,2.14-1.49,2.14-3.33v-52.22
			c0-1.84-0.96-3.33-2.14-3.33H36.79C36.12,175.36,35.49,175.85,35.09,176.68z"/>
		<path class="st1" d="M35.09,254.06L9.72,306.28c-1.07,2.19-0.06,5.34,1.7,5.34h458.24c1.18,0,2.14-1.49,2.14-3.33v-52.22
			c0-1.84-0.96-3.33-2.14-3.33H36.79C36.12,252.74,35.49,253.23,35.09,254.06z"/>
	</g>
</g>
</svg>
