<?xml version="1.0" encoding="utf-8"?>
<!-- Generator: Adobe Illustrator 25.4.1, SVG Export Plug-In . SVG Version: 6.00 Build 0)  -->
<svg version="1.1" id="Layer_1" xmlns="http://www.w3.org/2000/svg" xmlns:xlink="http://www.w3.org/1999/xlink" x="0px" y="0px"
	 viewBox="0 0 323 327" style="enable-background:new 0 0 323 327;" xml:space="preserve">
<style type="text/css">
	.st0{clip-path:url(#SVGID_00000129188071137226679120000013143510361425637526_);}
	.st1{fill:#F32266;}
</style>
<g>
	<defs>
		<path id="SVGID_1_" d="M5,318c170.1,0,308-143.72,308-321H5V318z"/>
	</defs>
	<clipPath id="SVGID_00000161593867185931826970000008464804401231006352_">
		<use xlink:href="#SVGID_1_"  style="overflow:visible;"/>
	</clipPath>
	<g style="clip-path:url(#SVGID_00000161593867185931826970000008464804401231006352_);">
		<path class="st1" d="M44.41,17.78L20.9,48.83c-0.99,1.3-0.06,3.17,1.58,3.17h424.54c1.09,0,1.98-0.89,1.98-1.98V18.98
			c0-1.09-0.89-1.98-1.98-1.98H45.98C45.36,17,44.78,17.29,44.41,17.78z"/>
		<path class="st1" d="M44.41,63.78L20.9,94.83c-0.99,1.3-0.06,3.17,1.58,3.17h424.54c1.09,0,1.98-0.89,1.98-1.98V64.98
			c0-1.09-0.89-1.98-1.98-1.98H45.98C45.36,63,44.78,63.29,44.41,63.78z"/>
		<path class="st1" d="M44.41,108.78l-23.5,31.04c-0.99,1.3-0.06,3.17,1.58,3.17h424.54c1.09,0,1.98-0.89,1.98-1.98v-31.04
			c0-1.09-0.89-1.98-1.98-1.98H45.98C45.36,108,44.78,108.29,44.41,108.78z"/>
		<path class="st1" d="M44.41,153.78l-23.5,31.04c-0.99,1.3-0.06,3.17,1.58,3.17h424.54c1.09,0,1.98-0.89,1.98-1.98v-31.04
			c0-1.09-0.89-1.98-1.98-1.98H45.98C45.36,153,44.78,153.29,44.41,153.78z"/>
		<path class="st1" d="M44.41,199.78l-23.5,31.04c-0.99,1.3-0.06,3.17,1.58,3.17h424.54c1.09,0,1.98-0.89,1.98-1.98v-31.04
			c0-1.09-0.89-1.98-1.98-1.98H45.98C45.36,199,44.78,199.29,44.41,199.78z"/>
		<path class="st1" d="M44.41,243.78l-23.5,31.04c-0.99,1.3-0.06,3.17,1.58,3.17h424.54c1.09,0,1.98-0.89,1.98-1.98v-31.04
			c0-1.09-0.89-1.98-1.98-1.98H45.98C45.36,243,44.78,243.29,44.41,243.78z"/>
		<path class="st1" d="M44.41,289.78l-23.5,31.04c-0.99,1.3-0.06,3.17,1.58,3.17h424.54c1.09,0,1.98-0.89,1.98-1.98v-31.04
			c0-1.09-0.89-1.98-1.98-1.98H45.98C45.36,289,44.78,289.29,44.41,289.78z"/>
	</g>
</g>
</svg>
