<svg width="420" height="420" viewBox="0 0 420 420" fill="none" xmlns="http://www.w3.org/2000/svg">
<circle cx="210" cy="210" r="209.25" fill="black"/>
<path d="M287.615 272.557C292.556 285.323 299.66 291.911 308.925 292.323V298.5C300.689 297.882 289.674 297.573 275.879 297.573C258.172 297.573 244.994 297.882 236.347 298.5V292.323C244.171 291.911 249.73 290.985 253.024 289.544C256.525 287.896 258.275 285.014 258.275 280.896C258.275 277.396 257.039 272.557 254.568 266.38L235.729 215.73H160.988L148.326 248.467C144.208 259.586 142.149 268.027 142.149 273.792C142.149 280.175 144.311 284.808 148.635 287.69C153.164 290.573 159.959 292.117 169.018 292.323V298.5C157.282 297.882 145.443 297.573 133.501 297.573C124.236 297.573 116.515 297.882 110.338 298.5V292.323C120.633 289.852 128.766 280.896 134.737 265.454L207.315 78.2935H212.257L287.615 272.557ZM233.258 209.553L198.668 117.208L163.459 209.553H233.258Z" fill="white"/>
</svg>
